<svg width="380" height="94" viewBox="210 47 380 94" xmlns="http://www.w3.org/2000/svg">
  <!-- Financière Madeleine - Logo vectorisé (texte converti en chemins) -->
  
  <!-- FINANCIÈRE (Regular 400, #505050) -->
  <g transform="translate(255.162, 78)" fill="#505050">
    <path d="M429 424V266H419V281Q419 301 405.0 315.5Q391 330 371 330H202V73Q203 47 221.5 28.5Q240 10 266 10H279V0H60V10H73Q99 10 117.5 28.5Q136 47 137 73V627Q137 653 118.0 671.5Q99 690 73 690H61L60 700H350Q372 700 396.5 703.0Q421 706 442.0 710.0Q463 714 472 718V605H462V620Q462 640 447.5 654.5Q433 669 413 669H202V360H371Q391 361 405.0 375.5Q419 390 419 410V424Z" transform="translate(0, 0) scale(0.038, -0.038)"/>
    <path d="M137 73V627Q136 653 117.5 671.5Q99 690 73 690H60V700H279V690H266Q240 690 221.5 671.5Q203 653 202 627V73Q203 47 221.5 28.5Q240 10 266 10H279V0H60V10H73Q99 10 117.5 28.5Q136 47 137 73Z" transform="translate(26.558, 0) scale(0.038, -0.038)"/>
    <path d="M126 715 671 133V629Q670 655 652.5 672.5Q635 690 609 690H590V700H796V690H778Q753 690 735.0 672.5Q717 655 716 629V114Q716 82 718.0 52.5Q720 23 723 5L725 -14H716L170 568L171 71Q171 46 189.0 28.0Q207 10 232 10H251V0H45V10H64Q89 10 107.0 28.0Q125 46 125 71V590Q125 641 121 678L116 715Z" transform="translate(45.402, 0) scale(0.038, -0.038)"/>
    <path d="M359 714 627 73Q642 39 667.0 24.5Q692 10 715 10H723V0H498V10H507Q526 10 541 27Q555 41 547 67L481 243H211L142 68Q138 51 142 39Q147 25 158.5 17.5Q170 10 182 10H191V0H-10V10H-1Q22 10 47 25Q68 38 84 66L313 611L319 624Q324 636 331.5 654.0Q339 672 344.5 689.0Q350 706 350 714ZM223 273H469L348 594Z" transform="translate(83.36, 0) scale(0.038, -0.038)"/>
    <path d="M126 715 671 133V629Q670 655 652.5 672.5Q635 690 609 690H590V700H796V690H778Q753 690 735.0 672.5Q717 655 716 629V114Q716 82 718.0 52.5Q720 23 723 5L725 -14H716L170 568L171 71Q171 46 189.0 28.0Q207 10 232 10H251V0H45V10H64Q89 10 107.0 28.0Q125 46 125 71V590Q125 641 121 678L116 715Z" transform="translate(116.416, 0) scale(0.038, -0.038)"/>
    <path d="M710 292 698 135Q672 92 632.5 58.5Q593 25 539.5 5.5Q486 -14 417 -14Q313 -13 232.0 32.0Q151 77 105.5 158.5Q60 240 60 351Q60 460 105.0 541.5Q150 623 231.5 668.5Q313 714 423 714Q497 714 556.5 694.5Q616 675 660 646L680 505H671Q649 593 581.0 638.5Q513 684 423 684Q335 684 270.5 642.5Q206 601 170.5 526.5Q135 452 135 352Q135 252 170.5 177.0Q206 102 269.5 60.0Q333 18 417 16Q488 16 548.5 42.5Q609 69 650.0 129.5Q691 190 702 292Z" transform="translate(154.374, 0) scale(0.038, -0.038)"/>
    <path d="M137 73V627Q136 653 117.5 671.5Q99 690 73 690H60V700H279V690H266Q240 690 221.5 671.5Q203 653 202 627V73Q203 47 221.5 28.5Q240 10 266 10H279V0H60V10H73Q99 10 117.5 28.5Q136 47 137 73Z" transform="translate(189.254, 0) scale(0.038, -0.038)"/>
    <path d="M533 162 475 0H60V10H73Q99 10 117.5 28.5Q136 47 137 73V627Q137 653 118.0 671.5Q99 690 73 690H61L60 700H350Q372 700 396.5 703.0Q421 706 442.0 710.0Q463 714 472 718V592H462V610Q462 634 445 652Q431 666 412 669H202V360H371Q391 361 405.0 375.5Q419 390 419 410V424H429V266H419V281Q419 301 405.0 315.5Q391 330 371 330H202V31H345Q398 31 431.5 47.5Q465 64 486.0 94.0Q507 124 523 162ZM306 771 299 764Q272 777 245.0 790.5Q218 804 191.5 819.0Q165 834 138 849Q146 865 156.5 878.0Q167 891 179 902Q200 882 221.0 860.5Q242 839 263.5 817.0Q285 795 306 771Z" transform="translate(208.09799999999998, 0) scale(0.038, -0.038)"/>
    <path d="M137 73V627Q136 653 117.5 671.5Q99 690 73 690H60V700H330Q375 700 411.5 687.0Q448 674 473.0 649.5Q498 625 511.5 590.5Q525 556 525 512Q525 464 502.5 420.0Q480 376 441.5 348.5Q403 321 355 321Q372 314 392.0 292.5Q412 271 427 251L441 232Q454 212 474.5 184.0Q495 156 516.0 129.0Q537 102 552 86Q572 64 592.0 47.0Q612 30 635.5 20.0Q659 10 688 10V0H633Q587 0 553.5 14.0Q520 28 497.0 48.5Q474 69 458 88Q455 92 441.5 111.0Q428 130 409.5 156.5Q391 183 373.0 209.0Q355 235 342.0 253.5Q329 272 327 275Q308 300 285.0 321.0Q262 342 235 342V352H251Q266 351 288 352Q314 353 345.0 360.0Q376 367 403.0 389.0Q430 411 444 456Q447 467 449.0 483.5Q451 500 450 516Q449 584 415.5 624.5Q382 665 326 668Q298 670 268.5 669.5Q239 669 219 669H202V73Q202 47 221.0 28.5Q240 10 266 10H278V0H60V10H73Q99 10 117.5 28.5Q136 47 137 73Z" transform="translate(236.02399999999997, 0) scale(0.038, -0.038)"/>
    <path d="M533 162 475 0H60V10H73Q99 10 117.5 28.5Q136 47 137 73V627Q137 653 118.0 671.5Q99 690 73 690H61L60 700H350Q372 700 396.5 703.0Q421 706 442.0 710.0Q463 714 472 718V592H462V610Q462 634 445 652Q431 666 412 669H202V360H371Q391 361 405.0 375.5Q419 390 419 410V424H429V266H419V281Q419 301 405.0 315.5Q391 330 371 330H202V31H345Q398 31 431.5 47.5Q465 64 486.0 94.0Q507 124 523 162Z" transform="translate(267.75, 0) scale(0.038, -0.038)"/>
  </g>
  
  <!-- Ligne séparatrice -->
  <line x1="215" y1="93" x2="585" y2="93" stroke="#b0b8c4" stroke-width="0.5"/>
  
  <!-- MADELEINE (Bold 700, #0E2841) -->
  <g transform="translate(257.00300000000004, 138)" fill="#0E2841">
    <path d="M780 714H789L875 68Q881 42 900 27Q921 10 947 10H963V0H663V9H678Q695 9 706.0 22.5Q717 36 717 52V55L678 414L491 90L481 73Q471 55 461.5 30.0Q452 5 452 -20H442L185 412L146 55V52Q146 36 157.5 22.5Q169 9 185 9H200V0H-9V10H7Q34 10 55 27Q73 40 78 64L163 714H172L483 204Z" transform="translate(0, 0) scale(0.038, -0.038)"/>
    <path d="M354 720 656 60Q671 36 690 25Q714 10 737 10H745V0H427V10H436Q456 10 471.0 26.5Q486 43 474 73L425 196H190L138 69Q132 52 136 39Q141 25 153.0 17.5Q165 10 177 10H186V0H-28V10H-19Q4 10 29 25Q48 36 62 60L296 589Q299 595 306.5 611.5Q314 628 322.5 649.0Q331 670 338.0 689.5Q345 709 345 720ZM208 238H408L310 484Z" transform="translate(42.214, 0) scale(0.038, -0.038)"/>
    <path d="M405 700Q523 700 609.0 657.5Q695 615 741.5 536.5Q788 458 788.0 350.0Q788 242 741.5 163.5Q695 85 609.0 42.5Q523 0 405 0H42V10H55Q81 10 99.5 28.5Q118 47 119 73V627Q119 653 100.0 671.5Q81 690 55 690H43L42 700ZM269 658V42H393Q465 42 517.0 79.5Q569 117 597.0 186.0Q625 255 625.0 350.0Q625 445 597.0 514.0Q569 583 517.0 620.5Q465 658 393 658Z" transform="translate(75.46, 0) scale(0.038, -0.038)"/>
    <path d="M606 205 560 0H42V10H55Q81 10 99.5 28.5Q118 47 119 73V627Q118 653 99.5 671.5Q81 690 55 690H42V700H423Q445 700 469.5 703.0Q494 706 515.0 710.0Q536 714 545 718V543H535V555Q535 601 508 629Q484 653 447 657H269V366H401Q438 367 462.0 391.5Q486 416 486 453V460H496V230H486V238Q486 275 462.0 299.0Q438 323 401 324H269V43H400Q450 43 488.0 62.5Q526 82 553.0 118.5Q580 155 596 205Z" transform="translate(112.92399999999999, 0) scale(0.038, -0.038)"/>
    <path d="M606 205 560 0H42V10H55Q81 10 99.5 28.5Q118 47 119 73V627Q118 653 99.5 671.5Q81 690 55 690H42V700H346V690H333Q307 690 288.5 671.5Q270 653 269 627V43H400Q450 43 488.0 62.5Q526 82 553.0 118.5Q580 155 596 205Z" transform="translate(142.94, 0) scale(0.038, -0.038)"/>
    <path d="M606 205 560 0H42V10H55Q81 10 99.5 28.5Q118 47 119 73V627Q118 653 99.5 671.5Q81 690 55 690H42V700H423Q445 700 469.5 703.0Q494 706 515.0 710.0Q536 714 545 718V543H535V555Q535 601 508 629Q484 653 447 657H269V366H401Q438 367 462.0 391.5Q486 416 486 453V460H496V230H486V238Q486 275 462.0 299.0Q438 323 401 324H269V43H400Q450 43 488.0 62.5Q526 82 553.0 118.5Q580 155 596 205Z" transform="translate(172.386, 0) scale(0.038, -0.038)"/>
    <path d="M119 73V627Q118 653 99.5 671.5Q81 690 55 690H42V700H346V690H333Q307 690 288.5 671.5Q270 653 269 627V73Q270 47 288.5 28.5Q307 10 333 10H346V0H42V10H55Q81 10 99.5 28.5Q118 47 119 73Z" transform="translate(202.402, 0) scale(0.038, -0.038)"/>
    <path d="M108 715 613 234V629Q612 655 594.5 672.5Q577 690 551 690H532V700H835V690H817Q792 690 774.0 672.5Q756 655 755 629V114Q755 77 758.0 47.5Q761 18 764 2L767 -14H758L252 467L253 71Q253 46 271.0 28.0Q289 10 314 10H333V0H30V10H49Q74 10 92.0 28.0Q110 46 110 71V590Q110 646 104 681L98 715Z" transform="translate(223.10799999999998, 0) scale(0.038, -0.038)"/>
    <path d="M606 205 560 0H42V10H55Q81 10 99.5 28.5Q118 47 119 73V627Q118 653 99.5 671.5Q81 690 55 690H42V700H423Q445 700 469.5 703.0Q494 706 515.0 710.0Q536 714 545 718V543H535V555Q535 601 508 629Q484 653 447 657H269V366H401Q438 367 462.0 391.5Q486 416 486 453V460H496V230H486V238Q486 275 462.0 299.0Q438 323 401 324H269V43H400Q450 43 488.0 62.5Q526 82 553.0 118.5Q580 155 596 205Z" transform="translate(261.97799999999995, 0) scale(0.038, -0.038)"/>
  </g>
</svg>